# xmcd
#
# Track frame offsets: 
#        150
#        7714
#        27862
#        46970
#        67447
#        89072
#        110020
#        129551
#        155025
#        178775
#
# Disc length: 2542 seconds
#
# Revision: 4
# Processed by: cddbd v1.5.2PL0 Copyright (c) Steve Scherf et al.
# Submitted via: ExactAudioCopy v1.1
#
DISCID=8a09ec0a
DTITLE=Various Artist - CUP NOODLE - CM SONGS COLLECTION
DYEAR=2006
DGENRE=JPop
TTITLE0=笠井紀美子＆デューク・エイセス - 日清カップヌードル　ハッピーじゃないか
TTITLE1=ロブバード - ボーンフリー・スピリット
TTITLE2=大沢誉志幸 - そして僕は途方に暮れる
TTITLE3=中村あゆみ - 翼の折れたエンジェル
TTITLE4=ハウンド・ドッグ - ff(フォルティシモ)
TTITLE5=鈴木雅之 - ガラス越しに消えた夏
TTITLE6=遊佐未森 - 地図をください
TTITLE7=CHAGE ＆ ASKA - 太陽と埃の中で
TTITLE8=布袋寅秦 - CHANGE YOURSELF
TTITLE9=THE PLATTERS - ONLY YOU
EXTD=YEAR: 2006
EXTT0=
EXTT1=
EXTT2=
EXTT3=
EXTT4=
EXTT5=
EXTT6=
EXTT7=
EXTT8=
EXTT9=
PLAYORDER=
